<svg display="block" role="presentation" viewBox="0 0 246 284" xmlns="http://www.w3.org/2000/svg"><path d="M 180.532 16.509 L 199.322 0.479 C 199.892 -0.001 200.672 -0.131 201.362 0.139 L 207.152 2.459 C 207.982 2.789 208.262 3.819 207.722 4.529 L 195.452 20.499 C 195.452 20.499 210.332 24.769 216.402 26.649 C 221.822 28.319 225.502 31.359 227.782 35.879 C 230.312 40.899 231.082 47.659 229.992 54.609 C 228.332 65.179 223.132 75.659 214.222 80.079 C 209.672 82.339 204.272 82.739 197.892 81.379 C 192.032 80.129 187.622 78.809 180.492 76.809 C 147.492 67.559 115.022 56.629 115.022 56.629 C 115.022 56.629 82.982 67.559 49.982 76.809 C 42.862 78.809 38.442 80.139 32.582 81.379 C 26.202 82.739 20.802 82.329 16.252 80.079 C 7.342 75.659 2.142 65.169 0.482 54.609 C -0.608 47.659 0.162 40.899 2.692 35.879 C 4.972 31.359 8.652 28.329 14.072 26.649 C 20.142 24.779 61.682 13.389 61.682 13.389 C 61.682 13.389 82.572 26.889 112.102 26.889 C 141.632 26.889 163.362 10.219 163.362 10.219 L 180.512 16.499 Z" fill="rgb(188, 143, 107)" height="82.16118041485566px" id="S5INp3fVM" transform="translate(8.818 197.541)" width="230.47323686520807px"/><path d="M 148.377 136.82 C 148.377 96.5 125.887 78.96 119.357 74.72 C 118.697 74.29 117.837 74.83 117.947 75.6 C 119.307 85.2 116.817 101.19 101.487 101.19 C 94.347 101.19 86.727 96.73 86.727 85.6 C 86.727 69.17 101.487 56.35 101.487 37.36 C 101.487 5.64 63.337 0 63.337 0 C 75.677 14.86 78.717 31.71 74.687 43.14 C 71.697 51.62 63.827 57.83 55.017 57.83 C 47.077 57.83 41.807 53.75 38.897 48.98 C 35.537 43.47 34.937 36.81 34.877 33.24 C 34.867 32.44 33.837 32.12 33.367 32.77 C 25.047 44.08 21.037 53.75 21.037 63.28 C 21.037 83.88 42.987 93.34 42.987 110.34 C 42.987 118.36 37.897 123.56 31.967 123.56 C 27.467 123.56 25.107 120.91 23.847 118.05 C 22.297 114.55 22.437 108.63 19.987 103.87 C 15.127 94.4 1.177 95.72 1.177 95.72 C 5.697 102.58 6.217 112.43 5.657 118.75 C 4.477 132.17 -1.053 144.67 0.177 160.19 C 2.177 185.39 24.767 213.85 70.867 213.85 C 125.437 213.85 148.387 172.98 148.387 136.83 Z" fill="rgb(246, 137, 31)" height="213.85000000000002px" id="g9ijUJ7aO" transform="translate(58.243 11.51)" width="148.38732576406824px"/><path d="M 72.71 46.855 C 72.71 17.715 48.93 3.825 41.27 0.105 C 40.45 -0.295 39.56 0.515 39.89 1.365 C 41.68 5.945 45.3 16.675 44.91 27.985 C 44.56 37.875 39.69 44.855 30.1 44.855 C 24.01 44.855 19.94 41.405 17.87 37.105 C 15.43 32.065 15.27 25.765 15.45 22.075 C 15.5 21.095 14.27 20.615 13.63 21.355 C 6.29 29.905 0 38.865 0 53.435 C 0 68.005 11.35 84.855 35.82 84.855 C 60.29 84.855 72.71 66.545 72.71 46.845 Z" fill="rgb(250, 183, 26)" height="84.85521543934962px" id="C5_TgCUvT" transform="translate(76.65 125.035)" width="72.71000000000001px"/><path d="M 46.623 93.806 C 66.543 90.386 78.713 72.916 78.753 53.276 C 78.923 27.466 61.053 8.926 38.233 0.096 C 37.073 -0.354 35.953 0.856 36.503 1.986 C 37.783 4.626 39.413 7.966 39.903 9.276 C 43.383 18.146 45.743 27.926 44.763 37.466 C 44.063 42.216 41.883 46.456 37.363 47.976 C 33.113 49.396 27.823 48.686 24.853 45.086 C 22.833 42.816 21.733 39.526 21.163 36.146 C 20.603 32.776 20.533 29.076 20.893 25.706 L 21.273 23.406 C 21.493 22.086 19.873 21.276 18.943 22.236 L 17.243 24.006 C 12.773 28.686 8.373 33.586 5.243 39.396 C -1.277 51.326 -2.277 66.996 5.453 78.636 C 14.173 92.076 31.553 96.456 46.643 93.816 Z M 10.043 41.866 C 11.753 38.346 13.943 35.086 16.313 31.936 C 16.383 40.046 18.643 48.496 26.263 52.306 C 34.453 56.156 45.023 52.966 48.713 44.426 C 52.713 35.536 51.143 22.856 48.093 12.396 C 62.583 21.056 72.963 35.876 72.863 53.276 C 72.773 70.026 62.623 84.796 45.533 87.486 C 29.603 89.896 12.403 83.946 7.363 67.346 C 5.063 58.956 6.293 49.686 10.043 41.876 Z" fill="rgb(0, 0, 0)" height="94.54794454625282px" id="M55vh9AM3" transform="translate(82.407 118.624)" width="78.75405028430879px"/><path d="M 34.133 7.439 C 25.163 4.229 15.973 1.589 6.513 0.339 C 4.603 0.119 2.673 -0.041 0.683 0.009 C 0.463 0.009 0.243 0.129 0.113 0.329 C -0.097 0.659 -0.007 1.089 0.323 1.309 C 1.993 2.389 3.723 3.269 5.463 4.079 C 10.673 6.469 16.143 8.179 21.623 9.819 C 29.023 11.749 36.503 13.769 44.223 13.709 C 44.893 13.709 45.163 12.759 44.593 12.409 C 41.293 10.309 37.773 8.789 34.143 7.439 Z" fill="rgb(0, 0, 0)" height="13.710503976793348px" id="z9OHhAcvr" transform="translate(145.847 240.161)" width="44.90304989161908px"/><path d="M 30.497 7.174 C 28.187 5.794 25.797 4.784 23.377 3.884 C 16.057 1.234 8.397 -0.316 0.567 0.054 C -0.013 0.074 -0.223 0.914 0.297 1.204 C 2.607 2.584 4.997 3.594 7.417 4.494 C 14.737 7.144 22.397 8.694 30.227 8.324 C 30.807 8.304 31.017 7.464 30.497 7.174 Z" fill="rgb(0, 0, 0)" height="8.378467447315757px" id="b0AuZBZuh" transform="translate(160.573 233.296)" width="30.79338472946668px"/><path d="M 6.91 8.174 C 6.91 8.174 6.91 8.174 6.9 8.164 C 6.66 7.894 6.24 7.824 5.94 8.024 C 2.63 10.274 0 14.944 0 19.134 C 0 23.654 2.7 26.574 6.87 26.574 C 13.33 26.574 16.95 19.274 16.9 12.004 C 16.87 7.334 15.07 2.734 12.42 0.184 C 12.17 -0.056 11.78 -0.056 11.51 0.154 C 11.24 0.364 11.15 0.724 11.28 1.044 C 12.61 4.404 12.67 8.584 12.23 12.074 C 11.65 15.634 10.11 20.354 7.03 20.354 C 4.35 20.354 3.99 17.064 4.5 14.764 C 4.94 12.724 5.85 10.714 6.98 8.994 C 7.15 8.734 7.13 8.404 6.92 8.174 Z" fill="rgb(0, 0, 0)" height="26.573937639120885px" id="vndz4i1IQ" transform="translate(211.04 229.106)" width="16.900511161847533px"/><path d="M 5.341 0.139 C 5.091 -0.051 4.741 -0.051 4.521 0.169 C 1.851 2.719 0.031 7.339 0.001 12.029 C -0.049 19.299 3.571 26.599 10.031 26.599 C 14.201 26.599 16.901 23.679 16.901 19.159 C 16.901 14.969 14.271 10.279 10.951 8.039 C 10.651 7.839 10.241 7.899 10.001 8.169 C 9.791 8.419 9.771 8.759 9.941 9.019 C 11.061 10.739 11.971 12.749 12.411 14.779 C 12.911 17.079 12.551 20.369 9.881 20.369 C 6.811 20.369 5.261 15.649 4.681 12.089 C 4.241 8.619 4.291 4.459 5.611 1.099 C 5.741 0.759 5.651 0.369 5.361 0.139 L 5.351 0.139 Z" fill="rgb(0, 0, 0)" height="26.598955976686767px" id="F7LBFYCnP" transform="translate(20.279 229.091)" width="16.900511161847568px"/><path d="M 227.962 210.443 C 224.642 207.563 220.152 206.263 216.192 205.163 C 213.612 204.393 207.462 202.613 202.972 201.293 C 206.132 197.193 211.372 190.393 214.202 186.703 C 215.162 185.453 214.662 183.643 213.202 183.053 C 210.262 181.873 206.502 180.363 203.872 179.333 C 202.952 178.973 201.912 179.193 201.212 179.873 L 182.652 198.033 C 181.732 198.923 182.962 200.423 184.022 199.643 C 184.022 199.643 200.982 187.053 203.452 185.223 C 204.452 185.623 205.832 186.173 207.112 186.683 C 203.822 190.963 198.152 198.373 195.222 202.183 C 194.412 203.243 194.912 204.783 196.192 205.163 L 197.482 205.543 C 199.572 206.153 203.742 207.383 207.572 208.503 C 196.202 214.233 190.742 227.253 191.982 239.603 C 192.292 243.423 193.322 247.243 195.172 250.633 C 196.362 252.683 197.682 254.503 199.662 255.963 C 199.942 256.173 200.342 256.193 200.652 256.003 C 201.072 255.743 201.202 255.193 200.942 254.773 C 195.932 246.443 196.912 232.933 201.082 224.423 C 203.272 220.003 206.872 216.303 211.202 213.953 C 214.972 212.113 220.302 211.913 223.842 214.363 C 228.092 217.643 230.072 223.093 230.382 228.673 C 231.082 241.913 224.322 260.543 209.122 261.623 C 205.572 261.923 201.682 261.093 198.202 260.263 C 194.422 259.373 190.652 258.283 186.832 257.203 C 163.652 250.713 140.652 243.583 117.832 235.983 C 100.932 241.683 83.872 247.093 66.762 252.173 C 58.382 254.643 49.882 257.083 41.482 259.363 C 35.632 260.853 29.402 262.633 23.442 261.053 C 7.712 257.143 -0.138 227.573 10.522 215.903 C 11.032 215.353 11.592 214.873 12.182 214.433 C 12.192 214.433 12.212 214.423 12.222 214.413 C 14.052 213.013 16.202 212.253 18.482 212.223 C 21.072 212.183 23.812 212.753 25.852 214.073 C 32.032 217.893 36.092 224.513 37.502 231.603 C 39.022 239.193 39.262 247.783 35.232 254.663 C 34.992 254.983 34.942 255.423 35.192 255.773 C 35.482 256.173 36.042 256.253 36.432 255.973 C 39.012 254.043 40.662 251.433 41.932 248.563 C 47.182 235.613 43.582 218.933 32.202 210.373 C 31.372 209.693 30.472 209.093 29.522 208.563 C 30.852 208.223 32.192 207.893 33.522 207.553 C 33.522 207.553 55.902 202.053 57.972 201.543 C 71.942 214.153 91.542 220.223 110.762 220.393 C 158.962 222.213 193.802 189.753 194.382 141.323 C 194.612 116.183 184.032 88.823 161.072 76.303 L 160.622 76.073 C 159.262 75.373 157.682 76.533 157.952 78.043 L 158.052 78.623 C 159.082 84.783 158.392 92.133 154.972 97.343 C 151.792 102.413 144.912 103.783 139.542 101.783 C 134.622 100.033 132.522 94.953 132.742 90.043 C 133.032 79.263 140.432 69.403 144.302 59.053 C 154.332 33.823 142.352 12.413 117.402 3.703 C 112.862 1.913 106.842 0.843 101.362 0.023 C 99.562 -0.247 98.412 1.893 99.642 3.243 C 101.332 5.093 102.962 6.903 102.962 6.903 C 113.652 18.413 121.772 39.883 110.382 53.243 C 105.132 59.273 96.012 61.153 89.192 56.873 C 82.372 52.623 80.582 43.123 81.172 35.513 C 81.172 35.513 81.532 32.503 81.912 29.303 C 82.162 27.233 79.512 26.173 78.262 27.833 C 72.942 34.873 67.272 42.403 64.042 50.213 C 59.802 59.573 58.602 71.493 63.332 81.083 C 67.372 90.063 75.442 97.143 80.222 105.063 C 83.182 109.953 84.572 116.203 81.822 121.383 C 79.122 126.823 70.672 127.913 68.442 121.613 C 66.942 117.073 67.162 111.833 64.962 107.343 C 61.202 99.313 51.632 96.463 43.372 96.503 C 43.362 96.503 42.482 96.553 41.392 96.603 C 39.452 96.703 38.352 98.873 39.402 100.503 C 40.042 101.493 40.562 102.293 40.562 102.293 C 44.632 108.693 45.132 117.983 44.122 125.733 C 41.072 145.053 34.952 160.473 42.972 180.173 C 45.542 186.523 49.102 192.083 53.372 196.883 C 47.312 198.373 32.172 202.093 32.172 202.093 C 27.902 203.163 23.642 204.233 19.352 205.383 C 17.652 205.793 15.962 206.293 14.322 206.933 C 13.262 207.293 12.242 207.763 11.282 208.353 C 9.512 209.323 7.872 210.513 6.452 212.033 C -5.808 225.303 0.682 253.893 15.202 263.423 C 23.582 269.243 33.792 267.393 42.922 264.823 C 68.162 257.943 93.062 250.253 117.862 241.943 C 132.662 246.863 147.502 251.533 162.422 256.013 C 173.932 259.393 185.282 262.813 196.922 265.753 C 201.012 266.733 205.272 267.583 209.522 267.253 C 223.342 266.593 232.292 253.323 234.912 240.933 C 237.272 230.673 236.692 217.833 227.992 210.453 Z M 46.492 153.003 C 47.892 141.273 52.522 129.313 52.052 117.153 C 51.882 112.623 51.212 108.093 49.612 103.833 C 53.202 104.183 56.692 105.433 59.052 108.143 C 63.182 113.183 61.692 120.673 65.672 125.943 C 69.202 131.093 77.032 131.383 81.722 127.713 C 86.312 124.313 88.032 118.153 87.582 112.803 C 86.382 99.023 73.992 90.283 69.012 78.513 C 64.012 67.173 68.262 55.513 74.632 45.503 C 75.542 49.603 77.142 53.523 79.702 56.973 C 88.232 68.483 105.922 67.893 114.892 57.313 C 121.862 49.623 122.892 38.223 121.002 28.493 C 119.812 22.193 117.472 16.233 114.372 10.713 C 114.502 10.763 114.642 10.803 114.782 10.853 C 130.982 16.663 142.522 28.903 139.702 46.863 C 137.812 60.593 127.082 72.683 125.842 87.023 C 125.252 93.273 126.732 100.193 131.712 104.473 C 138.232 110.083 148.612 110.153 155.372 104.953 C 161.862 99.563 163.622 90.943 162.912 82.863 C 179.962 96.713 187.592 119.723 187.352 141.323 C 187.532 170.103 172.492 199.173 144.972 210.293 C 128.852 216.923 110.442 217.703 93.492 214.143 C 71.102 209.523 50.922 192.703 46.762 169.743 C 45.752 164.293 45.782 158.643 46.472 153.003 Z" fill="rgb(0, 0, 0)" height="267.32557698102113px" id="tOUzS48mS" transform="translate(6.018 7.007)" width="236.10521289865764px"/><path d="M 0.683 13.699 C 4.593 13.769 8.393 13.219 12.183 12.469 C 21.503 10.519 30.723 7.959 39.443 4.069 C 41.183 3.249 42.913 2.379 44.583 1.299 C 44.773 1.179 44.903 0.969 44.903 0.729 C 44.913 0.339 44.603 0.019 44.213 0.009 C 42.223 -0.041 40.293 0.119 38.383 0.339 C 32.693 1.019 27.133 2.429 21.613 3.899 C 14.293 6.129 6.873 8.309 0.313 12.409 C -0.257 12.759 0.003 13.709 0.683 13.709 Z" fill="rgb(0, 0, 0)" height="13.709199314481168px" id="nO4Wo4DSO" transform="translate(57.367 240.161)" width="44.90297965158847px"/><path d="M 8.402 8.08 C 16.132 7.15 23.662 5.08 30.492 1.23 C 31.002 0.95 30.802 0.11 30.222 0.08 C 27.542 -0.11 24.942 0.06 22.382 0.35 C 14.652 1.28 7.122 3.35 0.292 7.2 C -0.218 7.48 -0.018 8.32 0.562 8.35 C 3.242 8.54 5.842 8.37 8.402 8.08 Z" fill="rgb(0, 0, 0)" height="8.430660620388693px" id="vhYIYMKkI" transform="translate(56.758 233.27)" width="30.78471011305262px"/></svg>